<svg width="280" height="35" viewBox="0 0 280 35" fill="none" xmlns="http://www.w3.org/2000/svg">
<path fill-rule="evenodd" clip-rule="evenodd" d="M53.7184 6.83577C53.4296 6.11613 52.9091 5.52875 52.2965 5.0248C51.3074 4.20477 50.169 3.60044 48.9685 3.09377C45.8365 1.77997 42.5214 1.04541 39.1214 0.622847C37.0747 0.370532 35.0065 0.213173 32.945 0.0876938C30.0802 -0.0723771 27.2122 -0.00455066 24.3555 0.219956C22.0705 0.39834 19.7982 0.686603 17.5583 1.1329C14.9878 1.64839 12.4711 2.31784 10.1255 3.43494C8.93652 3.99994 7.82699 4.67074 6.94771 5.59929C5.57763 7.0406 5.54397 8.74034 6.93492 10.1661C7.48161 10.7195 8.1212 11.2174 8.79244 11.6331C10.5483 12.7367 12.5277 13.4048 14.5569 13.961C16.6649 14.5463 18.828 14.939 21.0108 15.2307C21.8436 15.3399 22.6845 15.4172 23.5469 15.5128C24.9332 11.1706 26.308 6.85815 27.6848 2.54573C27.6989 2.55387 27.7211 2.55862 27.7393 2.56066C27.9642 6.95175 28.187 11.3381 28.4153 15.7536C28.7142 15.7672 28.9774 15.797 29.2387 15.7896C30.9326 15.7475 32.6252 15.7224 34.311 15.6437C36.9091 15.5257 39.487 15.2015 42.0346 14.7165C44.5452 14.2289 47.0067 13.5893 49.3227 12.5542C50.6921 11.9336 51.9915 11.2187 52.9731 10.1145C53.8402 9.14255 54.2119 8.06411 53.7184 6.83577Z" fill="#666767"/>
<path fill-rule="evenodd" clip-rule="evenodd" d="M22.6354 16.0997C19.6441 16.171 16.671 16.4368 13.7322 16.9794C10.8924 17.5085 8.12933 18.2478 5.53458 19.4565C3.88913 20.2277 2.35747 21.146 1.2035 22.4985C0.157252 23.7289 -0.303931 25.0935 0.212459 26.6332C0.643346 27.9178 1.57312 28.8783 2.68938 29.7024C4.56845 31.0914 6.74039 31.9827 9.00726 32.6969C11.3549 33.4335 13.7739 33.9069 16.2293 34.2454C16.6137 34.2969 16.9935 34.3342 17.3779 34.3729C19.3263 28.2678 21.2599 22.1953 23.2104 16.0991C22.9909 16.0997 22.8152 16.0957 22.6354 16.0997Z" fill="#666767"/>
<path fill-rule="evenodd" clip-rule="evenodd" d="M44.3062 20.4209C42.1814 19.1255 39.823 18.3027 37.3845 17.6618C35.0476 17.0493 32.6636 16.658 30.2466 16.3982C29.6656 16.3324 29.0818 16.2978 28.4611 16.2483C28.7768 22.3458 29.0818 28.3972 29.3909 34.4738C29.574 34.4738 29.7194 34.4928 29.8655 34.4677C31.3467 34.2689 32.8339 34.0953 34.3023 33.843C36.9731 33.3736 39.5665 32.6649 42.0232 31.5891C43.7939 30.8085 45.44 29.8718 46.7199 28.4671C48.2724 26.7647 48.4535 24.7842 47.2006 22.9753C46.4681 21.9084 45.44 21.1107 44.3062 20.4209Z" fill="#666767"/>
<path d="M87.3296 19.1849C89.2652 18.6328 90.2455 17.3502 90.2455 15.3683V12.6078C90.2455 9.54137 88.4694 7.9895 84.9637 7.9895H65.5038V31.0722H83.5714C88.1146 31.0722 90.4198 29.5013 90.4198 26.4091V23.517C90.4198 21.2421 89.3803 19.7927 87.3296 19.1849ZM71.108 21.255H82.7884C83.8138 21.255 84.2837 21.4042 84.4925 21.5256C84.8796 21.7718 85.0775 22.2771 85.0775 23.0361V24.7447C85.0775 25.5009 84.8796 26.0076 84.4992 26.2477C84.1881 26.4295 83.6138 26.5224 82.7884 26.5224H71.108V21.255ZM84.9462 15.6729C84.9462 16.0174 84.9462 17.0579 82.7884 17.0579H71.108V12.1412H82.7884C84.9462 12.1412 84.9462 13.1823 84.9462 13.5262V15.6729Z" fill="#666767"/>
<path d="M111.677 7.98828H106.359L93.3888 31.0712H99.154L101.764 26.1198H115.707L118.402 31.0712H124.821L111.743 8.10562L111.677 7.98828ZM113.28 21.5714H104.238L108.839 13.1058L113.28 21.5714Z" fill="#666767"/>
<path d="M150.069 20.1C150.069 20.5504 150.128 21.641 150.24 23.3421C149.689 22.7669 148.974 22.1015 148.105 21.3622L132.319 8.0439L132.253 7.98828H128.365V31.0722H133.533V18.6098C133.533 17.8278 133.481 16.8525 133.382 15.7028C133.814 16.162 134.292 16.611 134.799 17.0376L151.284 31.0166L151.349 31.0722H155.236V7.98828H150.069V20.1H150.069Z" fill="#666767"/>
<path d="M184.137 7.98657H167.606C165.379 7.98657 163.889 8.36641 163.054 9.14303C162.214 9.92848 161.803 11.3759 161.803 13.5695V25.4874C161.803 27.681 162.214 29.1291 163.054 29.9125C163.889 30.6912 165.379 31.071 167.606 31.071H184.137C186.365 31.071 187.853 30.6912 188.688 29.9125C189.528 29.1291 189.939 27.681 189.939 25.4874V13.5695C189.939 11.3759 189.528 9.9278 188.688 9.14303C187.853 8.36641 186.363 7.98657 184.137 7.98657ZM184.249 26.3468H167.494V12.4924H184.249V26.3468Z" fill="#666767"/>
<path d="M216.131 22.5254C219.64 22.5254 221.415 20.9715 221.415 17.9084V12.605C221.415 9.53914 219.64 7.98657 216.131 7.98657H196.665V31.071H202.267V22.5254H206.9L215.883 31.0052L215.949 31.071H224.189L213.826 22.5254H216.131ZM202.267 12.3174H213.776C214.734 12.3174 215.167 12.4456 215.352 12.5466C215.719 12.7684 215.895 13.2079 215.895 13.8889V16.6258C215.895 17.3088 215.719 17.7436 215.363 17.9606C215.168 18.0685 214.734 18.1967 213.777 18.1967H202.268V12.3174H202.267Z" fill="#666767"/>
<path d="M225.746 12.4926H236.055V31.0715H241.746V12.4926H252.098V7.98828H225.746V12.4926Z" fill="#666767"/>
<path d="M262.287 26.3467V21.2136H272.93V16.8822H262.287V12.3175H279.628V7.98608H256.599V31.0715H279.845V26.3467H262.287Z" fill="#666767"/>
</svg>
