<svg width="222" height="73" viewBox="0 0 222 73" fill="none" xmlns="http://www.w3.org/2000/svg">
<mask id="mask0_15_118" style="mask-type:luminance" maskUnits="userSpaceOnUse" x="0" y="0" width="222" height="73">
<path d="M221.301 0H0V72.0209H221.301V0Z" fill="white"/>
</mask>
<g mask="url(#mask0_15_118)">
<path d="M6.46126 29.8174C12.8083 18.0594 23.7899 5.2397 36.7466 0.95891C39.4064 0.296711 42.9451 -0.456631 45.3081 1.36982C47.4085 2.92233 47.694 5.58212 47.2145 7.9795C46.5867 10.8104 44.6461 14.395 41.404 14.8516C40.8219 14.8516 40.3196 14.6462 39.9428 14.2352C39.0981 13.4133 39.1552 12.2146 39.3379 11.1416C39.8744 8.89273 41.952 6.50687 44.3492 6.18723C44.7601 5.92468 44.589 5.43377 44.4634 5.07995C44.1438 4.57764 43.767 4.2009 43.1848 4.08672C40.5821 3.78999 38.6186 5.41098 36.6324 6.78082C29.0753 12.8653 23.5844 20.6735 18.9612 28.459C15.1941 35.4568 11.9863 42.6942 11.0503 50.8795C10.5937 56.8153 12.4658 62.6254 17.7511 65.4801C23.4704 68.5049 30.8676 66.4609 36.5981 64.8973L41.8607 63.2762L51.9862 60.2736C61.5866 57.4779 73.5957 56.8376 82.9677 60.5591C88.6299 62.9227 94.4632 66.1531 98.1504 71.7131C98.1504 71.8611 98.1504 72.0327 97.9791 71.9986C89.954 69.8066 79.4975 67.6368 71.5295 71.4382L71.1528 71.3478C68.7441 67.477 64.6574 65.3308 60.4793 64.498C46.9862 63.1963 35.8789 69.5892 23.1963 71.1763C16.7694 71.7695 9.87453 71.5639 5.38815 66.6442C-1.67802 59.6005 -0.84467 47.1235 2.5115 38.596C3.6074 35.5938 4.95445 32.6714 6.46126 29.8174Z" fill="#666767"/>
<path d="M25.0914 34.0298C28.4474 27.8768 33.5845 20.3539 40.6963 18.0937C42.5913 17.6598 44.6461 17.8425 46.0958 19.1097C49.1551 22.1576 47.9679 27.3859 46.9291 30.9705C46.9291 31.1759 47.1003 31.4157 47.3059 31.4385C50.0228 31.3586 52.2144 30.08 54.1894 28.2193C58.4131 23.5047 62.9336 17.3174 69.8057 18.048C71.0957 18.2535 72.3513 18.9955 73.0135 20.1942C74.7601 23.653 73.0477 27.4658 70.6734 30.1257C69.76 31.0046 68.6186 31.6669 67.3057 31.2558C66.7806 31.0847 66.3469 30.548 66.1414 30.0229C65.6505 27.5914 67.066 25.354 69.0295 24.0755C69.5889 23.5274 71.2784 23.9042 70.8217 22.6485C70.4678 22.1462 69.9427 22.0891 69.3948 22.0891C66.0614 23.4819 63.8812 26.8951 61.9405 29.749C59.4976 33.5732 57.5341 37.6257 56.2327 41.918C55.8788 43.4705 55.4336 45.4797 56.3355 46.918C56.9975 47.8198 58.1163 48.208 59.2578 47.9226C62.5683 46.6213 65.4678 43.9727 67.9907 41.2331C73.7669 34.3039 76.8377 25.7192 84.5773 20.0686C86.9746 18.4133 90.3765 17.1347 93.2645 18.6645C93.7326 18.8357 94.1092 19.4521 94.6914 19.2239C95.1596 18.7557 95.4906 17.7626 96.4152 18.0024C98.5495 18.0366 101.005 17.9339 103.196 18.1394L103.345 18.3448L102.728 19.8288L90.7189 44.2239C90.6047 44.4864 90.5705 44.8404 90.6276 45.1257C90.8331 45.4797 91.2669 45.4454 91.5865 45.3313C93.3102 44.3495 94.6686 42.5116 95.8673 40.9591C96.9289 39.4979 97.8651 37.9797 98.6294 36.3815C98.9489 35.9133 99.3378 35.3311 99.9768 35.4225C100.65 35.5138 101.495 35.2171 101.997 35.6965C101.233 37.7399 100.023 39.6007 98.9607 41.5299C95.6961 46.5413 91.4381 52.375 85.445 53.8704C84.4518 53.9843 83.2189 54.0642 82.4655 53.3335C81.3012 52.4548 81.2441 51.0511 80.9244 49.7953C80.8103 49.646 80.6048 49.6238 80.4335 49.6696C77.8879 51.9756 75.2395 54.2698 71.6551 53.8245C70.5478 53.5849 69.4975 52.7403 69.0067 51.6783C68.0821 49.8856 68.5272 47.5801 68.4701 45.5939C68.3902 45.3655 68.0935 45.4454 67.9793 45.5368C64.0752 49.3841 59.8629 52.8424 54.6803 53.8245C52.283 54.11 50.2053 53.4016 48.6072 51.7006C44.7373 46.6327 47.7967 39.9774 49.8287 35.0458C49.92 34.8174 49.8857 34.4864 49.6003 34.4293C48.1962 34.5435 46.8493 34.7719 45.5136 34.9659L45.0456 35.491C41.8949 41.3243 38.4931 47.5116 32.831 51.8381C30.4908 53.5273 27.0091 54.6809 24.2694 53.1279C21.4155 51.165 21.1644 47.6487 21.5182 44.4066C22.2032 40.7307 23.5273 37.3175 25.1255 34.0184M34.0639 33.7331C32.4201 37.0549 30.742 40.4111 30.6621 44.361C30.8333 45.0915 31.2671 45.9363 32.089 46.1531C32.968 46.3929 33.6985 45.9249 34.3721 45.4911C37.5913 42.7856 39.8287 39.0756 41.6551 35.5252C41.8036 35.1714 42.0662 34.7376 41.8607 34.3608C39.9315 33.5961 38.0707 32.2718 36.5867 30.6051L36.267 30.548C35.9703 30.6051 35.8561 30.8906 35.6507 31.0961L34.0639 33.7558V33.7331ZM39.0867 26.975C39.2008 28.733 40.8333 30.2513 42.3743 30.8449C42.751 30.9591 43.3675 31.2558 43.6872 30.7878C44.2693 29.6805 44.6232 28.4477 44.92 27.2262C45.2167 25.6166 45.4565 23.459 43.9154 22.3974C43.3903 22.1005 42.6026 22.0663 42.0432 22.3289C40.2853 23.1964 39.0296 24.9773 39.0752 26.9636M78.6528 40.571C78.2075 42.0321 77.534 43.6075 77.9907 45.2171C78.1391 45.5368 78.4815 45.7764 78.8011 45.8678C80.1139 45.902 80.9929 44.7034 81.8491 43.7787C85.6962 38.4477 88.6413 32.6943 91.2897 26.8608C91.7349 25.6394 92.4427 24.4978 92.4084 23.1279C92.3856 22.8312 92.0887 22.6256 91.8605 22.4886C91.2783 22.2261 90.7189 22.6256 90.2509 22.8654C85.0683 26.8494 82.2715 32.5687 79.6802 37.9911L78.6528 40.5938V40.571Z" fill="#666767"/>
<path d="M103.607 25.5936C104.749 23.3219 105.731 20.9588 107.168 18.8014C107.751 18.1621 108.664 18.1963 109.452 18.105L115.205 18.1849L115.434 18.4246C114.463 20.7306 113.401 23.0023 112.192 25.2168C111.894 25.799 111.278 26.3584 110.604 26.4383C108.264 26.484 105.787 26.6324 103.561 26.4155C103.333 26.1872 103.539 25.8561 103.596 25.5936" fill="#666767"/>
<path d="M109.383 37.272C113.39 28.9842 118.207 20.9933 125.034 13.9499C131.666 7.34038 138.847 1.98648 147.522 0.353963C149.885 0.0115361 152.546 0.228391 154.361 1.83799C154.714 2.13485 155.113 2.42018 155.616 2.24903C161.849 -0.239619 170.502 -1.11854 176.746 1.99787C180.365 3.76723 183.801 6.02751 187.271 8.19652C187.705 8.43628 187.499 8.90428 187.271 9.16683C185.273 11.3814 183.606 13.6532 181.815 15.9591C181.609 16.1646 181.29 16.0732 181.084 15.9591L171.894 9.64623C167.614 6.73528 162.682 4.70337 157.088 5.6166C156.473 5.93624 156.769 6.7011 156.677 7.28329C156.803 13.0139 154.772 18.0025 152.009 22.5573C149.805 25.7308 147.249 29.0642 143.504 30.1258C141.872 30.4683 140.285 29.9661 139.303 28.6532C136.575 24.498 138.983 19.418 140.982 15.7079C143.276 11.6897 146.826 7.89966 150.661 4.98871C150.753 4.84034 150.924 4.70337 150.811 4.5207C150.433 4.14397 149.783 4.37234 149.326 4.45222C143.094 6.52982 138.105 12.0436 133.505 17.2605C125.285 27.3746 119.052 38.3336 115.502 50.4004C114.406 54.9207 112.922 61.8726 117.523 65.0455C121.575 67.2271 125.467 64.43 128.527 61.815C133.162 57.1009 136.278 51.6444 137.556 45.4798C137.762 43.6419 138.276 41.1305 136.586 39.8633C135.068 39.1899 133.812 40.4341 132.784 41.4843C130.41 44.3383 129.406 47.7514 128.984 51.4388C127.933 52.3069 126.667 52.8661 125.559 53.7107C123.447 55.1603 121.37 57.1127 119.691 59.0638C119.485 59.1214 119.451 58.8936 119.395 58.7679C119.155 51.9861 121.575 46.1761 125.307 40.9592C128.276 37.5232 132.077 34.5779 136.689 35.6852C138.71 36.2218 140.045 38.3565 140.411 40.2514C141.153 46.6214 138.47 52.2035 135.581 57.3864C130.935 64.6814 123.608 72.0433 114.314 71.1646C110.753 70.9486 107.432 68.4815 105.913 65.2065C102.397 58.2087 104.829 49.2127 107.192 42.4432L109.372 37.2834L109.383 37.272ZM140.992 25.1944C141.072 25.982 141.393 26.8381 142.214 27.1236C143.789 27.5687 145.045 26.4043 146.221 25.5025C150.445 21.0504 153.001 15.8792 153.676 9.95448C153.676 9.07556 153.972 7.96814 153.482 7.20341C153.127 7.14632 152.751 7.28329 152.454 7.48875C149.611 9.38369 146.94 12.1463 144.999 14.9432C142.968 18.0596 141.118 21.2674 140.992 25.1828" fill="#666767"/>
<path d="M146.917 45.0345C150.296 40.5711 154.782 35.708 160.456 35.3541C161.883 35.3883 163.139 35.982 164.018 37.1806C166.426 40.7537 164.395 45.3314 163.505 48.9612C163.413 49.2808 163.652 49.5204 163.88 49.6003C165.046 49.7836 166.392 49.6003 167.42 49.087L167.865 48.5278C171.94 36.9067 178.002 26.119 185.193 15.8335C189.691 9.88599 195.433 3.74444 202.112 0.867663C203.697 0.319649 205.969 -0.342418 207.488 0.833355C209.178 2.21472 208.698 4.61196 208.253 6.44994C208.07 8.08232 206.255 8.2536 205.057 8.63021C204.999 8.59603 204.943 8.6302 204.885 8.57324C204.919 7.52291 205.478 6.58691 205.684 5.5595C205.741 5.00009 205.833 4.54348 205.604 4.00699C205.308 3.48189 204.668 3.65304 204.234 3.8014C201.986 4.90882 200.159 6.91794 198.436 8.86997C191.974 16.3586 187.305 24.6691 183.013 33.0709C181.597 35.982 180.126 38.8816 178.984 41.9066C178.95 42.0779 179.006 42.2035 179.155 42.3176C180.148 42.2949 180.741 41.2675 181.495 40.7422C187.18 35.5939 191.792 29.6692 196.05 23.6646C196.963 23.2308 198.013 23.2308 199.063 23.1509L199.269 23.2079C199.211 24.0298 198.504 24.6691 198.127 25.3997C193.367 32.2491 187.968 38.8131 181.404 44.772L176.654 48.6758C175.662 49.544 175.628 50.8901 175.125 51.9979C174.212 55.0123 173.298 58.0712 173.162 61.3698C173.184 61.9302 173.39 62.4553 173.858 62.7395C175.113 63.3 176.107 62.1005 176.986 61.2899C183.412 53.8587 186.243 44.7492 194.109 38.0824C196.689 36.0505 200.079 34.3039 203.412 35.8335C203.995 36.039 204.428 36.8039 205.137 36.45C205.638 36.0961 205.662 35.3084 206.369 35.3428C208.675 35.3198 211.13 35.24 213.356 35.4226C213.56 35.5939 213.412 35.8906 213.356 36.0961L211.769 39.3039L201.94 59.1437C201.495 60.0459 200.912 61.0162 200.97 62.0324C201.118 62.4658 201.587 62.4999 201.962 62.42C203.813 61.4038 205.159 59.7146 206.358 57.9914C207.568 56.3021 208.539 54.5213 209.679 52.7967C210.296 52.5112 211.14 52.6265 211.815 52.7168C212.225 53.0939 211.689 53.5968 211.609 54.0302C208.721 60.0119 204.703 66.5409 198.401 69.8525C196.941 70.5832 194.92 71.2445 193.309 70.3659C192.031 69.4872 192.145 67.8765 191.564 66.6443C191.449 66.4728 191.153 66.4964 191.003 66.5867C188.401 68.9163 185.582 71.5418 181.929 70.5256C179.657 69.4636 179.395 66.8381 179.235 64.578C179.12 64.4863 179.178 64.3161 179.03 64.2244L178.732 64.3384C176.175 67.3973 172.956 71.2105 168.652 70.8451C167.02 70.7194 165.593 69.1441 165.102 67.6827C163.595 62.911 165.194 57.6836 166.266 53.1057C166.266 52.8425 165.97 52.5806 165.741 52.5466L162.145 52.5911L161.564 53.2655C158.915 58.4588 156.004 63.4702 151.426 67.8085C149.018 69.9324 146.061 71.7015 142.762 70.7312C140.022 69.5553 139.303 66.5762 139.303 63.7674C139.886 56.7015 143.058 50.7199 146.94 45.0002M147.876 60.8683C147.934 61.8608 148.425 62.8888 149.451 63.2083C150.126 63.4479 150.856 63.1507 151.438 62.8652C154.806 60.3654 156.803 56.5182 158.629 53.0141C158.813 52.6605 158.961 52.1118 158.493 51.8499C156.746 50.9713 155.057 49.5898 153.652 48.0369C153.482 47.8656 153.151 47.8313 152.957 47.9455C151.689 49.6356 150.867 51.5069 149.988 53.3676C148.984 55.7312 147.9 58.0595 147.888 60.8683M156.357 44.4751C156.473 46.256 157.899 47.9227 159.532 48.516C159.851 48.63 160.434 48.7792 160.673 48.3793C161.678 46.1077 162.625 43.5048 162.099 40.8678C161.894 40.2514 161.369 39.6349 160.73 39.4295C160.091 39.2582 159.418 39.4523 158.858 39.7149C157.214 40.7879 156.427 42.5688 156.357 44.4751ZM188.573 60.0695C188.515 60.9141 188.298 61.9643 188.938 62.6151C189.292 62.9687 189.839 63.0027 190.284 62.8547C192.009 61.9525 193.127 60.114 194.189 58.5963C197.716 53.1162 200.307 47.2491 202.727 41.3016C202.819 40.7765 202.967 40.046 202.465 39.692C201.038 39.0186 199.92 40.5939 198.869 41.3473C194.212 45.9821 191.734 51.5763 189.406 57.2148L188.583 60.08L188.573 60.0695Z" fill="#666767"/>
<path d="M195.353 16.5298L198.47 12.5115L198.937 12.1006C207.944 11.9293 214.976 6.57544 221.301 0.251221C221.266 1.09596 220.889 1.88361 220.593 2.64847C216.437 12.4201 206.358 21.0048 195.455 21.1531L192.888 21.1188C192.419 21.0048 192.738 20.5366 192.864 20.297L195.365 16.5298H195.353Z" fill="#666767"/>
<path d="M206.7 68.128C206.7 66.9063 207.624 65.9818 208.8 65.9818C209.976 65.9818 210.89 66.9063 210.89 68.128C210.89 69.3497 209.964 70.286 208.8 70.286C207.636 70.286 206.7 69.372 206.7 68.128ZM208.8 70.7194C210.204 70.7194 211.415 69.6234 211.415 68.128C211.415 66.6326 210.216 65.5483 208.8 65.5483C207.385 65.5483 206.175 66.6444 206.175 68.128C206.175 69.6129 207.373 70.7194 208.8 70.7194ZM208.253 68.3336H208.766L209.555 69.6234H210.056L209.212 68.3113C209.645 68.2537 209.988 68.0259 209.988 67.489C209.988 66.8958 209.634 66.6444 208.938 66.6444H207.808V69.6234H208.263V68.3336H208.253ZM208.253 67.946V67.0215H208.87C209.189 67.0215 209.519 67.0896 209.519 67.4549C209.519 67.9119 209.177 67.9342 208.8 67.9342H208.263L208.253 67.946Z" fill="#666767"/>
</g>
</svg>
