<svg width="166" height="105" viewBox="0 0 166 105" fill="none" xmlns="http://www.w3.org/2000/svg">
<path d="M50.9499 52.5002C49.3528 47.7791 47.7952 43.157 47.5414 42.3928C47.7998 43.1673 49.3551 47.7885 50.9499 52.5002Z" fill="#666767"/>
<path d="M28.1571 56.551C28.4318 55.6263 28.7275 54.6242 29.0283 53.6104C28.7275 54.6214 28.4309 55.6291 28.1543 56.5519L28.1571 56.551Z" fill="#666767"/>
<path d="M134.817 76.4252C134.789 76.207 134.758 75.9902 134.758 75.7612V75.8687C134.758 76.0611 134.796 76.2408 134.817 76.4252Z" fill="#666767"/>
<path d="M18.2551 101.912V75.7954L18.2375 75.7968V101.915L18.2551 101.912Z" fill="#666767"/>
<path d="M41.4899 97.782C41.3553 97.8085 41.2226 97.8048 41.0899 97.8164C41.1947 97.8067 41.2939 97.8164 41.3991 97.8006L41.4899 97.782Z" fill="#666767"/>
<path d="M65.6825 93.4373C65.8227 93.4247 65.9544 93.434 66.0918 93.4101L90.3952 89.0967L66.2064 93.389C66.0289 93.4237 65.8571 93.428 65.6825 93.4373Z" fill="#666767"/>
<path d="M139.745 80.2933C139.85 80.2821 139.951 80.2905 140.053 80.2727L155.829 77.4717L140.112 80.2642C139.988 80.2839 139.869 80.2825 139.745 80.2933Z" fill="#666767"/>
<path d="M160.674 71.2588C159.456 71.4793 158.469 72.6474 158.469 73.8755C158.469 75.1003 159.456 75.9208 160.674 75.7069C161.893 75.4869 162.876 74.3202 162.876 73.0935C162.876 71.8635 161.893 71.0468 160.674 71.2588ZM160.674 75.2556C159.701 75.4282 158.912 74.7748 158.912 73.7962C158.912 72.8158 159.701 71.8818 160.674 71.7073C161.644 71.5379 162.431 72.1947 162.431 73.169C162.431 74.1476 161.644 75.0853 160.674 75.2556Z" fill="#666767"/>
<path d="M161.352 72.9118C161.352 72.8162 161.334 72.7303 161.299 72.6529C161.265 72.5802 161.218 72.5155 161.158 72.4662C161.096 72.417 161.026 72.3827 160.943 72.3602C160.858 72.3448 160.77 72.3438 160.675 72.3593L159.995 72.4784V74.7294L160.444 74.6473V73.7468L160.54 73.7322L160.9 74.5671L161.352 74.4893L160.965 73.5962C161.078 73.5216 161.174 73.4278 161.245 73.3077C161.314 73.1867 161.352 73.0563 161.352 72.9118ZM160.836 73.1637C160.792 73.213 160.735 73.2421 160.675 73.2566L160.444 73.2955V72.848L160.675 72.8082C160.735 72.7988 160.792 72.8082 160.836 72.8429C160.876 72.8795 160.901 72.9278 160.901 72.9892C160.9 73.0563 160.876 73.114 160.836 73.1637Z" fill="#666767"/>
<path d="M20.1759 59.9692L18.3841 60.2839L17.2209 61.6725L17.3592 60.4641L15.3346 60.8239L13.9959 62.2439C13.9959 62.2439 14.0131 62.1988 14.0648 62.0881L6.92646 75.816L14.9188 74.3956L17.5935 69.2617L20.2043 68.8006V99.565L28.9761 98.0043V67.2431L34.4857 66.2618L39.5523 56.5212L20.9475 59.827L20.08 61.1551L20.1759 59.9692Z" fill="#666767"/>
<path d="M62.07 52.5219L62.2255 53.6792L61.0358 52.7039L59.2314 53.0276L59.3297 54.1366L58.5013 53.158L43.2295 55.8676L38.0884 65.6198V93.2779C38.0884 94.9802 39.4625 96.1455 41.1523 95.8439L54.3305 93.5007L59.4037 83.9211L46.8611 86.1507V78.5845L52.5234 77.5844L57.2171 68.563L46.8611 70.4085V64.0643L59.19 61.8735L64.0919 52.4586L63.7943 52.2156L62.07 52.5219Z" fill="#666767"/>
<path d="M100.177 85.3608L108.47 83.886V44.2798C108.47 44.2798 97.7729 46.1829 96.8137 46.349C94.39 46.7811 93.9672 48.6481 93.6207 49.7163C80.9547 88.7783 80.9673 88.7595 80.9547 88.7783L89.1645 87.3147L92.3458 78.0395L100.178 76.6514V85.3608H100.177ZM94.519 70.1393L100.177 54.5921V69.1344L94.519 70.1393Z" fill="#666767"/>
<path d="M118.719 82.0647L127.487 80.5077V49.7405L132.998 48.76L138.06 39.0256L111.745 43.6975V52.5368L118.719 51.3003V82.0647Z" fill="#666767"/>
<path d="M67.9399 51.4789L62.7997 61.2321V88.8874C62.7997 90.5921 64.1728 91.7541 65.8636 91.4585L77.9313 89.3091L80.9878 80.055L71.774 81.7274V59.6352L87.6642 56.8159L90.7798 47.4197L67.9399 51.4789Z" fill="#666767"/>
<path d="M141.849 38.3507L136.707 48.0982V75.7618C136.707 77.4666 138.08 78.6238 139.769 78.3236L154.551 75.6976L159.586 66.125L145.478 68.6239V61.0727L151.143 60.0684L155.836 51.0494L145.478 52.8911V46.5464L157.813 44.3529L162.877 34.6091L141.849 38.3507Z" fill="#666767"/>
<path d="M58.797 82.0304L60.8524 81.6659V63.5657L48.8093 65.7053V68.0687L58.797 66.2954V69.7204V82.0304Z" fill="#666767"/>
<path d="M58.797 82.0303L60.8524 81.6663L58.797 82.0303Z" fill="#666767"/>
<path d="M147.428 50.5484L159.096 46.1143L147.428 48.1876V50.5484Z" fill="#666767"/>
<path d="M98.9733 67.8982V61.835L96.7559 68.2871L98.9733 67.8982Z" fill="#666767"/>
<path d="M81.8511 77.9081L82.0066 77.8799L88.4544 58.6643L73.7223 61.2805V63.6401L85.5888 61.5357L79.9647 78.2412L81.8511 77.9081Z" fill="#666767"/>
<path d="M81.8511 77.9083L82.0085 77.8801L88.4544 58.6643L82.0066 77.8801L81.8511 77.9083Z" fill="#666767"/>
<path d="M48.8093 82.5972L53.8076 79.3479L48.8093 80.2324V82.5972Z" fill="#666767"/>
<path d="M48.8038 82.6017L48.8094 82.5979V80.2315L53.8085 79.3472L48.8038 80.2315V82.6017Z" fill="#666767"/>
<path d="M147.428 65.0812L152.429 61.835L147.428 62.7223V65.0812Z" fill="#666767"/>
<path d="M116.75 53.6365L110.422 54.7637V57.1224L114.703 56.3597V86.8277L129.436 82.1615L116.75 84.417V53.6365Z" fill="#666767"/>
<path d="M110.422 54.7598V54.7635L116.75 53.6365L110.422 54.7598Z" fill="#666767"/>
<path d="M98.2059 78.9851L93.5737 79.808L92.7183 82.3215L96.1613 81.7107V90.1188L110.422 85.5378L98.2059 87.7075V78.9851Z" fill="#666767"/>
<path d="M41.4899 97.782L41.3991 97.8008C41.2934 97.8167 41.1947 97.8074 41.0899 97.8167C40.9353 97.8299 40.7779 97.8561 40.6271 97.8561C40.5977 97.8561 40.5716 97.8463 40.5423 97.8463C40.3169 97.8421 40.0986 97.8172 39.8802 97.7815C39.7875 97.767 39.6948 97.7562 39.5998 97.7342C39.3996 97.6901 39.2115 97.6319 39.0262 97.5611C38.9107 97.5198 38.7989 97.4715 38.6886 97.4184C38.5438 97.3514 38.4031 97.2791 38.2676 97.1938C38.114 97.1032 37.9701 96.9976 37.8285 96.8846C37.7494 96.8217 37.6702 96.7598 37.5976 96.6927C37.4067 96.5159 37.2386 96.3278 37.083 96.1237C37.0621 96.0942 37.0365 96.0698 37.0164 96.0369C36.4651 95.2779 36.1359 94.3364 36.1359 93.2781V93.2237V67.9578L30.9249 68.881V71.2444L34.0726 70.6871V94.3716C34.0726 98.952 38.2052 100.758 40.7388 99.9657C55.6041 95.3164 55.6041 95.2746 55.6041 95.2746L41.4964 97.7815H41.4899V97.782Z" fill="#666767"/>
<path d="M37.0165 96.0365C36.4609 95.2623 36.1359 94.292 36.1359 93.2241V93.2795C36.1359 94.3365 36.4651 95.2763 37.0165 96.0365Z" fill="#666767"/>
<path d="M41.4964 97.7811L55.6041 95.2751L41.4899 97.7811H41.4964Z" fill="#666767"/>
<path d="M41.0909 97.8164C40.9065 97.836 40.7225 97.8471 40.5423 97.8457C40.5717 97.8457 40.5977 97.8555 40.6271 97.8555C40.7798 97.8555 40.9344 97.8294 41.0909 97.8164Z" fill="#666767"/>
<path d="M65.6825 93.4385C65.5689 93.4469 65.4515 93.468 65.3389 93.468C65.3179 93.468 65.3016 93.4628 65.2825 93.4628C65.0381 93.4596 64.8015 93.4314 64.5687 93.3906C64.4942 93.3798 64.4215 93.3695 64.3475 93.3554C64.1454 93.3076 63.9554 93.2475 63.7636 93.1744C63.6472 93.1293 63.5354 93.0833 63.4241 93.0299C63.2868 92.9633 63.1587 92.8929 63.0293 92.815C62.8663 92.7179 62.7145 92.6072 62.5664 92.4927C62.4919 92.4299 62.4193 92.3717 62.348 92.3075C62.1678 92.1395 62.0053 91.9627 61.8498 91.7727C61.8153 91.7244 61.7809 91.6845 61.745 91.6399C61.5839 91.419 61.4475 91.1788 61.3269 90.9325C61.3078 90.8903 61.285 90.8579 61.2687 90.8204C61.1541 90.561 61.0633 90.2884 60.9949 90.0084C60.9865 89.9666 60.9702 89.9277 60.9595 89.8874C60.892 89.5637 60.8524 89.2339 60.8524 88.8886V88.8821V85.3647L58.7998 89.2377C58.8152 93.8034 62.6824 96.2793 65.1931 95.6231C67.7132 94.9668 90.3952 89.0983 90.3952 89.0983L66.0918 93.4127C65.9544 93.4352 65.8227 93.4258 65.6825 93.4385Z" fill="#666767"/>
<path d="M60.8524 85.356L58.797 89.2112C58.797 89.2182 58.7998 89.2276 58.7998 89.2356L60.8524 85.3639V85.356Z" fill="#666767"/>
<path d="M65.6825 93.4385C65.5507 93.4497 65.4143 93.4636 65.2825 93.4622C65.3016 93.4622 65.3179 93.4673 65.3388 93.4673C65.4515 93.4673 65.5689 93.4469 65.6825 93.4385Z" fill="#666767"/>
<path d="M60.9595 89.8857C60.8896 89.5599 60.8524 89.2243 60.8524 88.8806V88.8876C60.8524 89.2322 60.8924 89.5627 60.9595 89.8857Z" fill="#666767"/>
<path d="M139.745 80.2941C139.577 80.3129 139.411 80.3396 139.244 80.3396C139.226 80.3396 139.208 80.3316 139.192 80.3316C138.977 80.3288 138.77 80.2993 138.567 80.2735C138.452 80.2552 138.331 80.2439 138.217 80.2172C138.06 80.1815 137.913 80.1318 137.765 80.0821C137.602 80.0244 137.443 79.9648 137.287 79.8916C137.186 79.8442 137.089 79.7917 136.994 79.7354C136.813 79.6327 136.644 79.5234 136.482 79.3976C136.403 79.3357 136.328 79.2743 136.254 79.2053C136.109 79.0735 135.975 78.9365 135.85 78.7859C135.763 78.6907 135.685 78.5912 135.607 78.4885C135.524 78.3689 135.449 78.2432 135.376 78.1137C135.287 77.9598 135.201 77.805 135.129 77.6413C135.095 77.5587 135.072 77.4696 135.039 77.38C134.966 77.1703 134.896 76.9606 134.854 76.7369C134.834 76.6369 134.831 76.5286 134.818 76.4254C134.797 76.2415 134.759 76.0613 134.759 75.869V75.7616V50.4395L129.436 51.3847V53.7462L132.585 53.188L132.704 76.6336C132.704 81.2075 137.109 83.1674 139.615 82.4051C142.126 81.6372 155.829 77.4724 155.829 77.4724L140.053 80.2739C139.951 80.2913 139.849 80.2833 139.745 80.2941Z" fill="#666767"/>
<path d="M139.745 80.2939C139.559 80.3168 139.372 80.3349 139.192 80.3312C139.208 80.3312 139.225 80.3391 139.243 80.3391C139.411 80.3391 139.576 80.3126 139.745 80.2939Z" fill="#666767"/>
<path d="M18.2551 101.912L18.2375 101.915V75.7967L3.35357 78.4472L13.5777 59.1416L0 81.0995L16.1914 78.2173V104.326L30.9249 99.6625L18.2551 101.912Z" fill="#666767"/>
<path d="M18.2552 101.911L30.9249 99.6621L18.2552 101.911Z" fill="#666767"/>
<path d="M18.2375 75.7954L3.35357 78.4475L18.2375 75.7968V75.7954Z" fill="#666767"/>
<path d="M25.6798 39.7725C24.7569 43.2438 25.3013 41.1108 21.6609 54.0779C21.5989 54.2983 21.6362 54.7543 21.9063 54.9077C21.7554 55.2783 21.5533 55.654 21.2343 56.3647C21.0532 56.7644 20.3957 56.7269 20.2085 56.6973C20.2085 56.6973 19.0635 56.5702 17.9529 56.4651C16.9462 56.3722 16.6771 56.7147 16.2105 57.6759C16.0103 58.0784 15.8384 58.4316 15.6759 58.7684L25.5802 57.0098C25.3255 56.9169 23.5337 56.2592 23.0871 56.0594C22.7807 55.9247 22.927 55.6541 23.1789 55.1939C23.6208 55.1427 23.7991 55.0184 24.0673 54.6755C24.3365 54.334 31.4012 45.5762 31.4012 45.5762C31.4012 45.5762 30.2008 49.6584 29.0283 53.612C28.7275 54.6248 28.4309 55.6273 28.1571 56.5538L33.302 55.6386L34.3888 55.4439L36.318 48.7755C36.318 48.7755 36.3152 48.7812 35.5459 55.237L36.0772 55.1432L43.5229 53.8208C43.061 47.576 43.061 47.5723 43.061 47.5723L44.7652 53.6008L44.8425 53.5886L50.9513 52.5012C49.3551 47.789 47.8008 43.1683 47.5419 42.3924C47.5172 42.3197 47.5 42.2704 47.5 42.2704C47.5 42.2704 54.7883 48.6845 54.9941 48.8403C55.205 48.996 55.5678 49.315 56.0609 49.2226C56.3547 49.6228 56.642 49.9263 56.3393 50.1557C56.053 50.3743 53.4272 52.0574 53.4272 52.0574L54.0809 51.9448L63.7431 50.2302C63.5829 49.8414 63.4046 49.4051 63.1992 48.9088C62.8835 48.139 62.159 48.1418 61.1457 48.6531C60.0636 49.1879 59.5742 49.4023 59.2333 49.5622C58.8897 49.7109 58.5903 49.8761 58.2066 49.4694C57.9565 49.2024 57.7665 48.9472 57.5388 48.6451C57.9328 48.3224 57.7488 47.7885 57.6408 47.4625C55.7372 41.7141 54.1913 36.758 53.4626 34.4336C52.6533 31.8558 54.1867 31.9257 55.0132 32.4483C63.4949 37.8102 76.0235 45.6077 76.0235 45.6077C74.6755 37.5358 70.8032 15.659 68.8498 4.35822C68.4331 1.94936 67.1074 1.05102 65.5321 1.38971C62.1087 2.12433 60.3318 2.49587 57.8406 3.03299C56.2434 3.38576 55.8388 3.92195 55.1957 4.76728C52.4493 8.36251 50.4592 11.1026 49.0161 13.0212C48.5151 13.6817 48.1668 13.9012 47.8511 13.9472C47.6075 13.9852 47.4301 13.7652 47.3165 13.4856C46.6097 11.7804 45.8176 9.74543 44.8384 7.24838C43.7106 4.37651 47.0227 2.99687 48.9253 4.92068C48.6189 3.63908 48.3461 2.51651 48.0713 1.40473C47.6411 -0.333783 46.3377 -0.0706138 45.141 0.185987C43.4838 0.54157 38.6518 1.6238 36.8786 2.0019C35.4244 2.30822 34.433 2.56295 33.6601 2.0868C33.9474 3.71507 35.0123 4.13023 35.7429 4.35869C35.3792 5.41465 32.9537 12.5019 31.5386 16.5414C31.3896 16.9669 31.283 17.3923 30.9738 17.4561C30.7763 17.5002 30.4881 17.3295 30.049 16.9298C28.9897 15.962 28.0807 15.1209 24.553 11.8048C23.8955 11.1917 22.8706 10.527 21.5025 10.8141C19.1468 11.3052 16.1574 11.9329 13.5912 12.5019C12.0206 12.85 11.6313 14.0542 11.2304 16.5723C8.50732 33.5695 4.63501 58.6061 4.63501 58.6061C9.84372 53.1861 18.305 44.5273 24.2978 38.42C25.0643 37.6418 26.1092 38.1461 25.6798 39.7725ZM42.905 24.822L42.9097 23.8594L45.609 23.3223L42.905 24.822ZM49.0157 16.1628L45.7086 22.4221L42.1963 23.152L42.2228 42.0776L36.8325 43.0853L36.8362 24.238L35.2037 24.5589L33.6331 27.5766L28.6781 28.5557L33.4566 19.357L49.0157 16.1628ZM32.7456 19.5211L27.1979 29.4831L34.5443 28.072L35.9287 25.0716V43.9231L42.9097 42.6143L35.0291 44.7792L35.0235 28.7822L25.7516 30.6127L32.7456 19.5211Z" fill="#666767"/>
<path d="M14.0658 62.0878L14.6613 60.9446L15.3342 60.8235L17.5968 58.4353L17.3583 60.4633L18.3832 60.2822L20.3385 57.9409L20.1746 59.9674L20.9466 59.8262L22.4111 57.5872L25.6277 57.0271C25.6277 57.0271 25.5979 57.0168 25.5788 57.0093L15.6755 58.7679C14.6334 60.9066 14.2115 61.7847 14.0658 62.0878Z" fill="#666767"/>
<path d="M57.0517 51.4409L58.5013 53.1574L59.2314 53.0275L59.0568 51.0826L61.0358 52.7039L62.07 52.5219L61.8107 50.5958L63.7943 52.2157L64.2562 52.1341L64.09 52.4582L64.965 53.171C64.965 53.171 64.9668 53.2043 63.7417 50.23L54.0805 51.9441L57.0517 51.4409Z" fill="#666767"/>
<path d="M63.7943 52.2157L64.09 52.4577L64.2567 52.1345L63.7943 52.2157Z" fill="#666767"/>
<path d="M59.2319 53.0281L58.5013 53.1585L59.3297 54.1359L59.2319 53.0281Z" fill="#666767"/>
<path d="M20.08 61.1542L20.948 59.8269L20.176 59.9676L20.08 61.1542Z" fill="#666767"/>
<path d="M15.3346 60.824L14.6618 60.9445L14.0653 62.0869C14.0136 62.1985 13.9964 62.2435 13.9964 62.2435L15.3346 60.824Z" fill="#666767"/>
<path d="M18.3823 60.2827L17.3592 60.4633L17.2209 61.6723L18.3823 60.2827Z" fill="#666767"/>
<path d="M62.07 52.522L61.0363 52.7039L62.2255 53.6789L62.07 52.522Z" fill="#666767"/>
<path d="M117.98 29.437V34.1975L117.757 34.449L116.257 34.7168V37.3185L115.398 37.471V29.6804L117.757 29.2625L117.98 29.437ZM117.119 30.2377L116.257 30.3944V33.8532L117.119 33.6975V30.2377Z" fill="#666767"/>
<path d="M121.421 28.8255V36.402L120.558 36.5554V33.9561L119.7 34.1095V36.7074L118.838 36.8589V29.2814L119.048 29.0319L121.197 28.6533L121.421 28.8255ZM120.559 29.6314L119.7 29.7867V33.2402L120.559 33.0896V29.6314Z" fill="#666767"/>
<path d="M124.849 28.0068V28.8714L123.99 29.0229V35.9473L123.13 36.0964V29.1744L122.27 29.3292V28.4619L124.849 28.0068Z" fill="#666767"/>
<path d="M128.303 31.7172L127.867 32.2346L128.303 32.5831V35.1829L127.44 35.3358V32.7379L126.58 32.8871V35.4878L125.72 35.6417V27.8499L128.079 27.4324L128.303 27.6059V31.7172H128.303ZM127.44 28.4133L126.58 28.5681V32.024L127.44 31.8691V28.4133Z" fill="#666767"/>
<path d="M131.743 26.9997V34.3596L131.52 34.6129L129.374 34.9933L129.162 34.8198V27.4543L129.374 27.201L131.52 26.8262L131.743 26.9997ZM130.881 27.8024L130.022 27.9572V34.012L130.881 33.8614V27.8024Z" fill="#666767"/>
<path d="M134.324 30.659V27.2012L133.463 27.3555V33.4136L134.324 33.2598V31.5255L135.181 31.3739V33.75L134.963 34.0146L132.815 34.3941L132.603 34.206V26.8559L132.815 26.6021L134.963 26.2222L135.181 26.3962V30.5103L134.324 30.659Z" fill="#666767"/>
<path d="M136.905 33.6583L136.043 33.8154V26.0234L136.905 25.8677V33.6583Z" fill="#666767"/>
<path d="M137.765 25.7174L139.909 25.3374L140.347 25.6883V33.0507L139.484 33.2022V26.277L138.625 26.4295V33.3537L137.765 33.5081V25.7174Z" fill="#666767"/>
<path d="M143.787 24.8625V32.439L142.926 32.592V29.9931L142.064 30.1432V32.743L141.204 32.8945V25.3213L141.417 25.0689L143.564 24.6885L143.787 24.8625ZM142.926 25.6698L142.065 25.8214V29.2763L142.926 29.1248V25.6698Z" fill="#666767"/>
<path d="M147.218 24.4695V31.4053L146.781 31.9078L144.636 32.2901V24.4981L146.781 24.1167L147.218 24.4695ZM146.356 31.1182V25.0624L145.497 25.2158V31.2731L146.356 31.1182Z" fill="#666767"/>
<path d="M150.671 23.6435V31.0055L150.446 31.2606L148.3 31.6401L148.085 31.4633V24.1013L148.3 23.8513L150.446 23.469L150.671 23.6435ZM149.808 24.4499L148.947 24.6033V30.6588L149.808 30.5096V24.4499Z" fill="#666767"/>
<path d="M158.4 22.2744V27.0385L158.177 27.2908L156.68 27.5554V30.1542L155.82 30.3099V22.5192L158.177 22.0999L158.4 22.2744ZM157.539 23.0784L156.681 23.2322V26.6894L157.539 26.5375V23.0784Z" fill="#666767"/>
<path d="M161.841 21.6659V29.0267L161.62 29.2777L159.474 29.6614L159.264 29.4855V22.1233L159.474 21.8718L161.62 21.489L161.841 21.6659ZM160.982 22.4741L160.122 22.6257V28.6833L160.982 28.529V22.4741Z" fill="#666767"/>
<path d="M165.284 25.166L164.847 25.6801L165.284 26.0319V28.6336L164.424 28.7851V26.1863L163.562 26.3369V28.9357L162.702 29.0886V21.2996L165.06 20.8835L165.283 21.0595V25.166H165.284ZM164.425 21.8616L163.563 22.0131V25.469L164.425 25.3184V21.8616Z" fill="#666767"/>
</svg>
