<svg width="152" height="103" viewBox="0 0 152 103" fill="none" xmlns="http://www.w3.org/2000/svg">
<path d="M38.2124 45.1582C36.1632 46.1417 35.1571 48.3017 35.9447 49.9835C36.7002 51.6635 39 52.2676 41.0478 51.3152C43.0947 50.3336 44.1031 48.1754 43.3145 46.4918C42.5614 44.8086 40.2592 44.2068 38.2124 45.1582Z" fill="#666767"/>
<path d="M120.934 26.4643C122.985 25.4836 123.991 23.3244 123.204 21.6443C122.447 19.9638 120.147 19.3593 118.099 20.3116C116.05 21.2951 115.043 23.4516 115.83 25.1344C116.587 26.8144 118.887 27.4167 120.934 26.4643Z" fill="#666767"/>
<path d="M37.8949 43.3801C45.3324 36.0498 53.617 30.9078 60.6121 27.5767C65.652 25.1957 71.8267 22.5945 77.9037 20.6922C85.3684 18.3436 90.784 16.2472 95.3239 14.9796C99.6688 13.7714 112.807 6.94956 110.412 0C110.193 10.9177 80.0169 15.6129 72.7706 16.2472C57.7139 17.6457 46.1209 25.1962 36.1655 36.781C21.9874 53.3481 12.2872 72.451 9.41863 80.8654C8.66139 83.0236 7.11875 81.5949 7.15054 78.8354C7.15054 78.3855 7.27501 76.7998 7.37131 75.1533C8.19033 65.8533 10.835 56.1378 15.6255 48.0781C16.2547 47.064 17.6729 46.2366 18.8376 46.3327C19.0906 46.3327 19.4676 46.1414 19.593 46.1121C30.9343 42.684 28.068 33.892 17.8282 42.0163C17.1673 42.5234 15.7178 42.2731 15.0568 42.3362C11.3401 42.6218 5.32308 43.5384 3.62054 50.1104C5.44845 47.9522 9.41818 46.7134 11.5282 46.9056C12.2863 46.9683 12.7547 47.0942 13.134 47.8227C7.2423 57.6306 2.99185 66.7727 0.880483 74.929C-0.223353 79.3731 -1.16865 85.9108 3.80905 88.5453C6.70764 90.0994 7.40265 89.9388 8.81901 85.8783C11.0866 79.7858 16.8838 68.2627 21.862 61.6303C26.9664 54.7105 32.4797 48.7124 37.8949 43.3801ZM22.6806 40.4C23.7835 39.8577 24.8878 39.8577 25.139 40.4C25.3902 40.9052 24.6647 41.7637 23.5618 42.3033C22.4612 42.8423 21.3582 42.8423 21.1052 42.3033C20.8545 41.7944 21.5794 40.9372 22.6806 40.4Z" fill="#666767"/>
<path d="M145.443 31.5445C143.427 33.3832 142.485 36.5903 140.752 38.937C138.481 42.1437 137.412 40.0491 139.835 35.4156L146.8 20.7224L140.593 22.1813C140.435 22.2125 139.804 23.103 139.585 23.6119C138.922 24.9743 138.576 24.0865 137.537 23.7052C135.427 22.8152 130.7 24.2457 129.187 25.738C126.793 28.018 123.96 32.4327 121.375 36.7464C120.714 37.9238 114.385 50.5865 111.735 47.8233L120.652 28.6568L114.537 30.2109L109.465 39.8592L105.689 45.3494C104.52 47.0646 102.726 49.253 101.025 50.8739C98.9747 53.6645 97.8445 50.9013 99.2277 48.5235L107.011 35.0042C107.607 33.9264 108.395 31.8282 105.875 32.6872C104.458 33.164 101.404 34.558 99.9218 35.0042C99.135 35.2563 98.3151 34.6216 98.3773 33.5118C98.9442 26.786 92.9881 31.987 92.9277 35.7025C92.8936 36.939 93.8721 38.8423 94.1891 39.51C94.3758 39.9534 93.3692 41.5094 92.6119 42.6223C92.3912 42.9697 91.2873 42.2723 91.2873 41.6682C91.2873 39.8903 88.9875 35.6357 82.6924 40.271L81.967 40.8115C80.6456 41.2243 77.0252 46.017 74.2524 51.0606C72.9596 53.5062 71.1012 55.8868 70.1896 57.5709C67.2278 62.8377 62.062 65.3135 64.2661 60.6155L71.1017 45.8871C71.416 45.224 73.1808 44.4927 74.2197 44.365C74.7257 44.2698 75.4171 43.3816 75.1355 42.9404C74.788 42.6846 73.78 42.5894 73.4334 42.5569C73.1172 42.5569 72.707 41.9245 73.3057 41.0971L78.3779 29.6723L72.2673 31.1953L65.9677 44.5558C65.4939 45.6047 63.3826 45.9196 62.2483 46.46C61.8072 46.0793 60.2042 47.9515 62.4682 47.9515C63.8554 47.9515 63.9508 48.0787 63.5089 49.0946C60.5476 55.9197 53.9009 63.8212 48.6711 68.516C46.7496 70.233 44.5438 69.2144 45.1125 67.0589C46.0869 63.0601 50.4977 54.1414 53.0815 51.0606C54.0899 49.9536 55.6021 49.2534 56.1063 50.9672C55.4754 51.2848 54.6573 51.7612 54.3425 51.9516C47.2225 56.8368 54.9407 62.7421 57.902 52.7117C57.8075 49.9829 56.3898 47.6361 53.5534 48.459C45.962 50.5554 41.677 60.1084 37.9912 66.4224C37.1104 67.8836 35.7553 70.4211 34.7128 71.5968C32.0695 74.5792 31.1865 72.389 32.1636 70.2957L40.0394 53.6023L33.7066 55.1573L26.7139 69.9145C25.3902 72.7413 27.6283 79.436 32.2903 75.6262C32.4148 75.5635 32.6369 75.3105 32.7305 75.245C35.2184 73.4378 38.2424 68.7732 39.0941 67.28C39.3453 67.7243 39.785 68.4547 39.785 68.4547C40.1348 72.5189 43.7883 74.0392 48.7029 70.39C49.333 69.8848 50.9378 68.2016 52.0094 67.0255C53.836 64.8989 57.0198 61.1536 58.1532 59.8544C58.4071 59.568 58.91 59.8219 58.91 60.4896C58.91 60.5203 58.4698 61.6959 58.4698 61.9481C58.4698 67.82 63.1618 68.0424 66.2162 64.1694L71.5737 57.4413C71.7009 57.2826 72.9596 57.2199 72.9273 57.5992C72.6439 61.4401 79.3541 66.3587 85.8699 55.285C86.6876 53.918 88.138 51.5068 88.8321 49.7943C89.7138 47.6361 91.3505 45.3828 92.8005 44.0177C92.8005 44.0177 93.401 43.604 93.4314 43.5371C93.4946 43.4145 93.5559 43.1253 93.5559 43.1253C95.069 40.558 96.3314 38.9068 97.2444 38.4959L100.928 36.8434C101.558 36.3354 102.629 36.9711 100.488 38.7782C98.0312 40.811 96.0157 43.6035 94.0619 45.8866C91.0357 49.5394 91.3823 56.0781 94.8805 56.9956C96.4222 56.678 98.8184 55.253 100.238 53.6645C104.552 48.8393 107.073 45.3187 107.073 48.1107C107.073 54.1716 112.71 52.045 115.829 47.7615L118.791 43.6982C118.978 43.415 119.549 42.6223 119.924 44.4927C120.335 46.5557 121.941 47.4462 122.95 47.8572C124.336 48.4269 127.139 47.0952 129.156 44.9055C130.479 43.4465 131.612 41.6988 132.59 39.9534C132.747 39.6043 133.472 39.2885 133.472 40.1758C133.472 44.5554 137.947 44.905 140.811 41.6988C141.944 40.493 144.498 36.3986 146.073 33.6377C147.806 30.5908 149.663 33.7672 148.75 35.4165C147.049 38.3055 144.656 41.4778 141.158 43.7623C140.087 44.4625 138.544 45.2244 137.411 45.9196C130.29 50.2694 119.01 53.4114 108.145 56.4886C96.6757 59.8224 85.2408 63.0917 75.5743 66.1382C68.7382 68.2643 56.5756 71.8187 46.2763 76.4522C37.1726 80.5462 29.3267 84.5148 27.4352 90.2288C25.9235 94.8289 26.5535 98.4757 28.3501 100.257C30.6186 102.541 34.7119 103.876 40.038 100.989C40.038 100.989 40.4137 100.576 40.7939 100.447C42.4011 99.9388 45.4859 97.56 45.7398 94.9241C43.0288 96.7322 41.0124 98.003 40.1957 97.9403C36.6361 97.5257 35.8489 94.066 40.2583 90.4823C44.6396 86.8954 53.4276 82.0715 57.4614 80.1989C60.9264 78.5487 64.8952 76.8678 68.611 75.2784C84.643 68.4222 103.101 62.965 119.388 56.6492C123.202 55.1907 127.517 53.6037 131.109 51.8885C136.401 49.3175 141.033 46.5571 145.378 43.1907C145.378 43.1907 145.727 42.7162 145.757 42.7162C148.53 39.9251 150.389 37.0356 150.926 35.195C152.121 31.0049 148.09 29.1945 145.443 31.5445ZM87.6342 46.3648C88.7058 47.0334 87.9195 48.8393 87.6002 49.604C86.1239 52.5859 84.6094 55.0621 83.069 57.1233C80.2962 60.7418 76.0154 60.5839 78.978 54.1414C80.4243 51.0322 82.7565 45.8592 84.9596 42.7482C87.0056 39.9242 89.1787 39.3819 87.7928 41.2243C86.3451 43.2241 86.4078 45.6038 87.6342 46.3648ZM136.875 29.2906C135.363 33.1933 132.78 38.2062 129.252 41.9853C126.416 45.0643 124.651 43.4777 126.447 39.7319C128.212 36.2402 131.237 30.496 133.254 27.5452C135.962 23.4828 138.136 25.9875 136.875 29.2906Z" fill="#666767"/>
<path d="M147.923 54.1674C147.838 54.1248 147.713 54.1006 147.545 54.1006H146.638V55.1109H147.52C147.697 55.1109 147.828 55.0917 147.914 55.0501C148.068 54.9778 148.147 54.8378 148.147 54.625C148.147 54.3994 148.074 54.2466 147.923 54.1674Z" fill="#666767"/>
<path d="M147.186 51.5654C144.991 51.5654 143.212 53.3584 143.212 55.5668C143.212 57.7753 144.991 59.5673 147.186 59.5673C149.376 59.5673 151.157 57.7753 151.157 55.5668C151.157 53.3584 149.376 51.5654 147.186 51.5654ZM148.987 57.2064H148.13C148.105 57.1227 148.09 57.0559 148.08 57.006C148.059 56.9021 148.051 56.7937 148.046 56.6797L148.04 56.3333C148.039 56.0935 147.995 55.9329 147.91 55.8542C147.828 55.7764 147.671 55.7302 147.441 55.7302H146.638V57.2064H145.875V53.4485H147.708C147.965 53.4522 148.166 53.4856 148.309 53.5464C148.449 53.6041 148.569 53.6929 148.668 53.8091C148.748 53.9061 148.812 54.0086 148.858 54.1249C148.904 54.2406 148.931 54.3729 148.931 54.5193C148.931 54.6964 148.885 54.8731 148.796 55.0451C148.706 55.2172 148.559 55.3403 148.353 55.4135C148.523 55.4803 148.647 55.581 148.716 55.7082C148.787 55.8368 148.826 56.0345 148.826 56.2944V56.5502C148.826 56.7205 148.832 56.8362 148.845 56.8971C148.866 56.995 148.913 57.0664 148.987 57.1113V57.2064H148.987Z" fill="#666767"/>
<path d="M91.0393 95.7358V96.5362H90.1894V102.437H89.8533V96.5362H89.0074V95.7358H91.0393Z" fill="#666767"/>
<path d="M92.4689 101.834C92.1486 101.834 91.921 101.579 91.7811 101.071C91.6412 100.56 91.5717 99.9347 91.5717 99.191C91.5717 98.2657 91.653 97.5637 91.8161 97.0868C91.9792 96.6095 92.1927 96.3687 92.4552 96.3687C92.7178 96.3687 92.9295 96.6113 93.0821 97.0927C93.237 97.5751 93.3138 98.2085 93.3138 98.997C93.3138 99.7438 93.2484 100.401 93.1135 100.975C92.9804 101.547 92.7669 101.834 92.4689 101.834ZM92.433 95.5715C92.0087 95.5715 91.6857 95.9843 91.47 96.8099C91.3028 97.4529 91.2206 98.2263 91.2206 99.1302C91.2206 100.13 91.3187 100.959 91.5168 101.615C91.7357 102.294 92.0396 102.634 92.4271 102.634C92.8386 102.634 93.1525 102.245 93.3801 101.467C93.5695 100.809 93.6654 99.9786 93.6654 98.9828C93.6654 98.0574 93.5827 97.3 93.4151 96.7092C93.2034 95.9518 92.875 95.5715 92.433 95.5715Z" fill="#666767"/>
<path d="M94.4072 101.656V96.5189H95.0041C95.273 96.5189 95.4674 96.7463 95.5882 97.2076C95.7113 97.6644 95.7695 98.3073 95.7695 99.1384C95.7695 99.3553 95.7618 99.5873 95.7463 99.8386C95.7191 100.261 95.6691 100.605 95.6041 100.877C95.5219 101.213 95.4133 101.444 95.2843 101.562C95.2117 101.626 95.119 101.657 95.0059 101.657H94.4072V101.656ZM94.0683 102.437H95.069C95.4942 102.437 95.7963 101.93 95.9716 100.912C96.072 100.338 96.122 99.6972 96.122 98.9837C96.122 98.0662 96.0375 97.3078 95.8694 96.717C95.6809 96.0667 95.4165 95.7363 95.0767 95.7363H94.0679V102.437H94.0683Z" fill="#666767"/>
<path d="M97.7032 101.834C97.3803 101.834 97.1536 101.579 97.0178 101.071C96.8742 100.56 96.8038 99.9347 96.8038 99.191C96.8038 98.2657 96.8865 97.5637 97.0514 97.0868C97.2135 96.6095 97.4252 96.3687 97.6864 96.3687C97.9517 96.3687 98.1616 96.6113 98.3147 97.0927C98.4677 97.5751 98.545 98.2085 98.545 98.997C98.545 99.7438 98.4773 100.401 98.3483 100.975C98.2133 101.547 97.9989 101.834 97.7032 101.834ZM97.6655 95.5715C97.2412 95.5715 96.9192 95.9843 96.702 96.8099C96.5344 97.4529 96.4549 98.2263 96.4549 99.1302C96.4549 100.13 96.554 100.959 96.7484 101.615C96.9682 102.294 97.2703 102.634 97.6596 102.634C98.0712 102.634 98.3869 102.245 98.6113 101.467C98.803 100.809 98.8965 99.9786 98.8965 98.9828C98.8965 98.0574 98.8134 97.3 98.6494 96.7092C98.4359 95.9518 98.1075 95.5715 97.6655 95.5715Z" fill="#666767"/>
<path d="M102.045 96.243C102.218 96.6864 102.314 97.1962 102.333 97.765H102.003C101.961 97.3344 101.891 96.9967 101.777 96.7473C101.668 96.4961 101.512 96.3698 101.314 96.3698C101.064 96.3698 100.87 96.6018 100.72 97.0612C100.569 97.5243 100.494 98.2272 100.494 99.1804C100.494 99.9593 100.564 100.59 100.7 101.074C100.834 101.561 101.036 101.804 101.308 101.804C101.553 101.804 101.742 101.547 101.871 101.036C101.936 100.766 101.99 100.415 102.021 99.9744H102.352C102.322 100.677 102.226 101.268 102.06 101.743C101.865 102.317 101.598 102.603 101.262 102.603C100.973 102.603 100.732 102.367 100.535 101.899C100.277 101.277 100.144 100.317 100.144 99.0194C100.144 98.035 100.244 97.2273 100.437 96.5995C100.647 95.9108 100.938 95.5703 101.308 95.5703C101.624 95.5708 101.871 95.795 102.045 96.243Z" fill="#666767"/>
<path d="M103.9 101.834C103.586 101.834 103.357 101.579 103.213 101.071C103.073 100.56 103.006 99.9347 103.006 99.191C103.006 98.2657 103.087 97.5637 103.252 97.0868C103.415 96.6095 103.626 96.3687 103.887 96.3687C104.152 96.3687 104.363 96.6113 104.518 97.0927C104.669 97.5751 104.748 98.2085 104.748 98.997C104.748 99.7438 104.681 100.401 104.549 100.975C104.416 101.547 104.201 101.834 103.9 101.834ZM103.866 95.5715C103.442 95.5715 103.123 95.9843 102.904 96.8099C102.739 97.4529 102.655 98.2263 102.655 99.1302C102.655 100.13 102.753 100.959 102.949 101.615C103.169 102.294 103.474 102.634 103.86 102.634C104.27 102.634 104.587 102.245 104.811 101.467C105.002 100.809 105.099 99.9786 105.099 98.9828C105.099 98.0574 105.015 97.3 104.847 96.7092C104.635 95.9518 104.309 95.5715 103.866 95.5715Z" fill="#666767"/>
<path d="M105.492 95.7358H105.888L107.164 101.17V95.7358H107.482V102.437H107.102L105.81 97.0145V102.437H105.492V95.7358Z" fill="#666767"/>
<path d="M108.979 95.7358H109.461L110.18 101.402L110.902 95.7358H111.382V102.437H111.06V98.4821C111.06 98.3462 111.063 98.1206 111.068 97.8048C111.069 97.4891 111.073 97.1495 111.073 96.7889L110.345 102.436H110.007L109.288 96.7889V96.9902C109.288 97.1541 109.291 97.4071 109.294 97.7426C109.298 98.0776 109.298 98.3256 109.298 98.4817V102.436H108.98V95.7358H108.979Z" fill="#666767"/>
<path d="M111.915 95.7358H113.739V96.5578H112.256V98.5956H113.624V99.3722H112.256V101.637H113.759V102.437H111.915V95.7358Z" fill="#666767"/>
<path d="M114.561 101.656V96.5189H115.153C115.426 96.5189 115.62 96.7463 115.739 97.2076C115.86 97.6644 115.921 98.3073 115.921 99.1384C115.921 99.3553 115.914 99.5873 115.897 99.8386C115.869 100.261 115.822 100.605 115.756 100.877C115.67 101.213 115.565 101.444 115.436 101.562C115.363 101.626 115.272 101.657 115.159 101.657H114.561V101.656ZM114.22 102.437H115.222C115.647 102.437 115.948 101.93 116.124 100.912C116.223 100.338 116.272 99.6972 116.272 98.9837C116.272 98.0662 116.189 97.3078 116.02 96.717C115.831 96.0667 115.567 95.7363 115.228 95.7363H114.219V102.437H114.22Z" fill="#666767"/>
<path d="M117.152 95.7358H116.814V102.437H117.152V95.7358Z" fill="#666767"/>
<path d="M118.05 101.656V96.5189H118.642C118.913 96.5189 119.11 96.7463 119.228 97.2076C119.347 97.6644 119.408 98.3073 119.408 99.1384C119.408 99.3553 119.402 99.5873 119.387 99.8386C119.356 100.261 119.307 100.605 119.246 100.877C119.16 101.213 119.053 101.444 118.923 101.562C118.851 101.626 118.761 101.657 118.647 101.657H118.05V101.656ZM117.709 102.437H118.709C119.133 102.437 119.437 101.93 119.61 100.912C119.71 100.338 119.759 99.6972 119.759 98.9837C119.759 98.0662 119.675 97.3078 119.51 96.717C119.321 96.0667 119.053 95.7363 118.712 95.7363H117.709V102.437H117.709Z" fill="#666767"/>
<path d="M120.734 99.6848L121.13 96.7303L121.518 99.6848H120.734ZM120.01 102.437H120.365L120.636 100.422H121.611L121.872 102.437H122.244L121.337 95.7358H120.947L120.01 102.437Z" fill="#666767"/>
<path d="M125.916 95.7358L126.388 101.179L126.956 95.7358H127.326L127.896 101.179L128.369 95.7358H128.741L128.081 102.437H127.724L127.141 96.8813L126.56 102.437H126.203L125.544 95.7358H125.916Z" fill="#666767"/>
<path d="M128.835 95.7358H129.232L129.95 98.9567L130.671 95.7358H131.052L130.119 99.737V102.437H129.779V99.737L128.835 95.7358Z" fill="#666767"/>
<path d="M132.471 101.834C132.155 101.834 131.924 101.579 131.785 101.071C131.645 100.56 131.574 99.9347 131.574 99.191C131.574 98.2657 131.656 97.5637 131.82 97.0868C131.983 96.6095 132.196 96.3687 132.455 96.3687C132.721 96.3687 132.931 96.6113 133.086 97.0927C133.24 97.5751 133.315 98.2085 133.315 98.997C133.315 99.7438 133.248 100.401 133.118 100.975C132.984 101.547 132.77 101.834 132.471 101.834ZM132.433 95.5715C132.009 95.5715 131.691 95.9843 131.472 96.8099C131.307 97.4529 131.223 98.2263 131.223 99.1302C131.223 100.13 131.324 100.959 131.517 101.615C131.738 102.294 132.043 102.634 132.43 102.634C132.842 102.634 133.157 102.245 133.38 101.467C133.571 100.809 133.666 99.9786 133.666 98.9828C133.666 98.0574 133.582 97.3 133.416 96.7092C133.205 95.9518 132.877 95.5715 132.433 95.5715Z" fill="#666767"/>
<path d="M135.767 101.878C135.606 101.878 135.482 101.735 135.391 101.455C135.301 101.175 135.256 100.828 135.256 100.415C135.256 99.9438 135.305 99.5928 135.406 99.3598C135.507 99.1251 135.623 99.0088 135.755 99.0088C135.944 99.0088 136.072 99.1585 136.147 99.4619C136.218 99.7644 136.256 100.081 136.256 100.415C136.256 100.811 136.214 101.152 136.135 101.443C136.054 101.733 135.933 101.878 135.767 101.878ZM135.797 95.8813C135.419 95.8813 135.157 96.4236 135.017 97.505C134.943 98.0679 134.904 98.7589 134.904 99.5671C134.904 100.665 134.987 101.445 135.153 101.909C135.318 102.371 135.518 102.604 135.747 102.604C136.017 102.604 136.226 102.376 136.37 101.916C136.514 101.463 136.587 100.936 136.587 100.344C136.587 99.6545 136.507 99.1324 136.355 98.7859C136.201 98.4368 136.022 98.2601 135.819 98.2601C135.696 98.2601 135.585 98.3228 135.484 98.4436C135.378 98.5796 135.29 98.7878 135.22 99.0646C135.228 98.2702 135.284 97.6634 135.385 97.2373C135.486 96.8113 135.625 96.5989 135.797 96.5989C135.947 96.5989 136.061 96.7348 136.134 97.0108C136.177 97.1545 136.207 97.3581 136.226 97.6167H136.534C136.534 97.2153 136.48 96.8259 136.372 96.4493C136.264 96.0726 136.072 95.8813 135.797 95.8813Z" fill="#666767"/>
<path d="M136.945 100.967C137.025 100.551 137.172 100.172 137.395 99.8346L137.725 99.3312C137.872 99.1037 137.975 98.9078 138.033 98.7472C138.126 98.4969 138.176 98.2077 138.176 97.8823C138.176 97.502 138.132 97.1972 138.046 96.9757C137.958 96.7524 137.845 96.6389 137.703 96.6389C137.492 96.6389 137.348 96.853 137.266 97.2782C137.221 97.5066 137.197 97.8242 137.196 98.2287H136.875C136.879 97.6608 136.92 97.1977 136.995 96.8407C137.127 96.2092 137.359 95.8943 137.693 95.8943C137.975 95.8943 138.179 96.0934 138.309 96.4993C138.441 96.8997 138.506 97.3523 138.506 97.8452C138.506 98.3655 138.436 98.8136 138.303 99.1824C138.23 99.4003 138.085 99.6607 137.875 99.9682L137.643 100.312C137.534 100.473 137.444 100.63 137.376 100.78C137.261 101.046 137.186 101.335 137.153 101.656H138.507V102.437H136.825C136.832 101.872 136.874 101.382 136.945 100.967Z" fill="#666767"/>
<path d="M141.551 95.9358C141.797 96.2814 141.946 96.8937 142.001 97.7641H141.67C141.631 97.2781 141.55 96.9253 141.422 96.7056C141.292 96.4814 141.133 96.3701 140.945 96.3701C140.715 96.3701 140.523 96.6031 140.367 97.0662C140.212 97.5303 140.135 98.2227 140.135 99.1389C140.135 99.9343 140.197 100.578 140.329 101.076C140.453 101.576 140.663 101.824 140.953 101.824C141.177 101.824 141.36 101.65 141.506 101.299C141.653 100.952 141.726 100.383 141.734 99.6016H140.937V98.8547H142.042V102.437H141.825L141.745 101.567C141.632 101.905 141.534 102.136 141.446 102.267C141.3 102.49 141.111 102.605 140.885 102.605C140.593 102.605 140.341 102.349 140.131 101.835C139.902 101.193 139.782 100.309 139.782 99.1874C139.782 98.0671 139.895 97.1784 140.118 96.5184C140.333 95.8878 140.608 95.572 140.945 95.572C141.181 95.5716 141.379 95.691 141.551 95.9358Z" fill="#666767"/>
<path d="M142.406 101.684L143.959 96.5362H142.516V95.7358H144.382V96.5198L142.827 101.638H144.382V102.437H142.406V101.684Z" fill="#666767"/>
<path d="M145.143 95.7358H144.804V102.437H145.143V95.7358Z" fill="#666767"/>
</svg>
