<svg width="280" height="280" viewBox="0 0 280 280" fill="none" xmlns="http://www.w3.org/2000/svg">
<path d="M140 280C217.32 280 280 217.32 280 140C280 62.6801 217.32 0 140 0C62.6801 0 0 62.6801 0 140C0 217.32 62.6801 280 140 280Z" fill="#0D3963"/>
<path d="M141.947 179.845C141.871 168.245 143.216 156.611 145.957 145.232C161.007 140.806 175.229 134.204 188.234 125.595C201.624 116.761 213.581 105.887 223.768 93.2768C231.134 84.1503 237.473 74.2133 242.628 63.712C250.325 74.0309 256.388 85.4189 260.665 97.5919C254.746 106.731 248.029 115.395 240.689 123.355C230.302 134.586 218.643 144.498 206.045 152.805C193.694 160.99 180.367 167.698 166.438 172.739C161.274 174.627 155.945 176.307 150.599 177.737C147.747 178.505 144.845 179.209 141.947 179.845Z" fill="#6CB3DF"/>
<path d="M149.657 225.186C146.139 214.901 143.797 204.213 142.686 193.393C146.53 192.596 150.353 191.683 154.069 190.682C159.793 189.155 165.5 187.355 171.02 185.336C185.934 179.939 200.203 172.756 213.437 163.985C226.933 155.084 239.416 144.472 250.537 132.448C255.756 126.792 260.72 120.75 265.315 114.466C267.008 122.833 267.869 131.408 267.869 139.996C267.869 147.896 267.135 155.843 265.688 163.625C264.08 165.195 262.392 166.786 260.669 168.351C248.899 179.175 235.933 188.828 222.13 197.042C208.948 204.87 194.929 211.43 180.477 216.53C174.631 218.601 168.58 220.484 162.487 222.122C158.329 223.247 154.018 224.273 149.665 225.181L149.657 225.186Z" fill="#FFB400"/>
<path d="M170.133 264.293C164.062 256.049 158.86 247.156 154.655 237.825C158.482 236.989 162.284 236.065 165.971 235.067C172.395 233.341 178.776 231.355 184.941 229.17C200.216 223.781 215.032 216.848 228.974 208.566C239.323 202.409 249.277 195.451 258.607 187.856C251.407 205.677 240.112 221.851 225.788 234.809C212.669 246.685 197.568 255.561 180.898 261.195C177.397 262.371 173.782 263.41 170.133 264.293Z" fill="white"/>
<path d="M218.189 78.5071C215.575 75.6389 212.881 72.8174 210.165 70.1019C205.464 65.3965 200.542 60.8565 195.544 56.6009C183.163 46.002 169.751 36.6336 155.682 28.7629C145.13 22.8186 134.043 17.6252 122.676 13.3017C128.417 12.5252 134.229 12.1306 140.004 12.1306C153.603 12.1306 166.989 14.2521 179.799 18.4441C196.452 23.892 211.591 32.5858 224.786 44.2794C227.693 46.8633 230.493 49.5873 233.128 52.3834C229.089 61.5651 224.069 70.3437 218.193 78.5071H218.189Z" fill="white"/>
<path d="M185.679 111.504C183.087 108.594 180.397 105.743 177.669 103.019C173.426 98.7757 169.013 94.7321 164.562 90.9983C152.453 80.7856 139.117 71.9942 124.933 64.8703C110.46 57.6064 95.0458 52.0948 79.1135 48.4883C71.332 46.7318 63.3425 45.4207 55.3403 44.5848C67.8697 33.5108 82.1727 25.131 97.8843 19.6533C100.159 20.2855 102.53 20.9941 105.118 21.813C120.376 26.6075 135.175 33.0186 149.118 40.868C162.424 48.3101 175.114 57.1736 186.842 67.2124C191.573 71.2347 196.227 75.5371 200.691 79.9964C203.792 83.098 206.834 86.3141 209.741 89.5685C202.553 97.7913 194.466 105.166 185.679 111.5V111.504Z" fill="#FFB400"/>
<path d="M142.333 132.329C130.958 121.501 118.132 112.485 104.202 105.53C89.7592 98.3302 74.3658 93.4169 58.4548 90.9263C50.3847 89.6534 42.1365 89.0042 33.9433 89.0042C30.1586 89.0042 26.323 89.1442 22.5214 89.42C27.6171 77.5652 34.5034 66.5548 43.002 56.6646C54.1737 57.1822 65.3284 58.6842 76.1691 61.1324C91.0406 64.5012 105.428 69.6437 118.925 76.4197C132.172 83.0726 144.629 91.2827 155.949 100.829C160.107 104.313 164.227 108.093 168.203 112.065C170.277 114.139 172.335 116.295 174.321 118.484C164.308 124.361 153.556 129.015 142.338 132.325L142.333 132.329Z" fill="#6CB3DF"/>
<path d="M140 267.869C132.375 267.869 124.696 267.186 117.173 265.837C112.026 255.896 107.749 245.484 104.465 234.885C99.9253 220.366 97.1801 205.337 96.2934 190.215C95.4193 175.42 96.2934 160.51 98.8985 145.906C99.8617 140.467 101.079 135.002 102.509 129.673C103.269 126.821 104.092 124.021 105.008 121.149C115.085 126.881 124.483 133.865 132.969 141.922C129.278 157.175 127.886 172.794 128.828 188.348C129.821 204.459 133.266 220.251 139.066 235.28C143.36 246.409 148.914 257.046 155.588 266.928C150.438 267.551 145.202 267.869 140 267.869Z" fill="#6CB3DF"/>
<path d="M100.239 261.56C84.4979 256.414 70.1101 248.377 57.4449 237.664C56.8085 235.216 56.1805 232.611 55.5313 229.7C52.0691 214.124 50.2065 198.094 50.007 182.06C49.8161 166.705 51.1526 151.261 53.9699 136.156C55.1155 129.957 56.5115 123.779 58.1195 117.788C59.2651 113.516 60.5338 109.264 61.8915 105.144C72.5498 107.24 82.9789 110.558 92.9074 115.013C91.6515 118.815 90.5526 122.485 89.5597 126.21C88.0323 131.909 86.7339 137.747 85.7029 143.56C82.9153 159.204 81.9776 175.166 82.911 191.004C83.8572 207.217 86.8061 223.319 91.6685 238.869C94.0445 246.536 96.9254 254.156 100.239 261.56Z" fill="#FFB400"/>
<path d="M39.9174 219.564C27.4771 203.941 18.813 185.506 14.7865 166.022C13.0256 157.54 12.1304 148.783 12.1304 139.996C12.1304 131.209 13.0256 122.472 14.7865 113.995C15.5205 110.401 16.42 106.824 17.4553 103.354C22.9202 102.722 28.4615 102.403 33.9391 102.403C38.7548 102.403 43.6342 102.649 48.4542 103.137C47.2789 106.829 46.18 110.579 45.1786 114.305C43.4772 120.639 42.0007 127.165 40.7957 133.703C37.8171 149.67 36.4085 165.996 36.6036 182.221C36.7606 194.708 37.8765 207.251 39.9174 219.559V219.564Z" fill="white"/>
</svg>
