<svg width="66" height="66" viewBox="0 0 66 66" fill="none" xmlns="http://www.w3.org/2000/svg">
<path d="M33 66C51.2254 66 66 51.2254 66 33C66 14.7746 51.2254 0 33 0C14.7746 0 0 14.7746 0 33C0 51.2254 14.7746 66 33 66Z" fill="#0D3963"/>
<path d="M33.459 42.3921C33.441 39.6578 33.758 36.9155 34.4041 34.2332C37.9515 33.19 41.3039 31.6338 44.3693 29.6046C47.5257 27.5223 50.344 24.959 52.7453 21.9867C54.4815 19.8354 55.9757 17.4931 57.1909 15.0178C59.0051 17.4501 60.4343 20.1344 61.4424 23.0038C60.0472 25.158 58.464 27.2003 56.7338 29.0765C54.2855 31.7238 51.5372 34.0601 48.5678 36.0184C45.6565 37.9476 42.5151 39.5288 39.2317 40.7169C38.0145 41.162 36.7584 41.558 35.4982 41.8951C34.8261 42.0761 34.1421 42.2421 33.459 42.3921Z" fill="#6CB3DF"/>
<path d="M35.2763 53.0795C34.4472 50.6552 33.8951 48.1359 33.6331 45.5856C34.5392 45.3976 35.4403 45.1825 36.3164 44.9465C37.6656 44.5865 39.0107 44.1624 40.3119 43.6863C43.8273 42.4142 47.1907 40.721 50.3101 38.6537C53.4915 36.5555 56.4338 34.0542 59.0551 31.2198C60.2853 29.8867 61.4554 28.4625 62.5386 26.9813C62.9376 28.9536 63.1406 30.9748 63.1406 32.9991C63.1406 34.8613 62.9676 36.7345 62.6266 38.5687C62.2475 38.9388 61.8495 39.3138 61.4434 39.6829C58.6691 42.2342 55.6127 44.5094 52.3593 46.4457C49.2519 48.2909 45.9476 49.8371 42.5411 51.0392C41.163 51.5273 39.7368 51.9714 38.3006 52.3574C37.3205 52.6224 36.3044 52.8645 35.2783 53.0785L35.2763 53.0795Z" fill="#FFB400"/>
<path d="M40.1028 62.2976C38.6716 60.3543 37.4455 58.2581 36.4543 56.0588C37.3565 55.8618 38.2526 55.6438 39.1217 55.4088C40.6358 55.0017 42.14 54.5336 43.5932 54.0186C47.1936 52.7484 50.6861 51.1142 53.9725 49.162C56.4118 47.7108 58.758 46.0706 60.9573 44.2804C59.2601 48.4809 56.5978 52.2934 53.2214 55.3477C50.129 58.1471 46.5696 60.2393 42.6401 61.5675C41.815 61.8445 40.9629 62.0896 40.1028 62.2976Z" fill="white"/>
<path d="M51.4302 18.5053C50.8142 17.8292 50.1791 17.1641 49.539 16.524C48.4309 15.4149 47.2707 14.3448 46.0926 13.3416C43.1742 10.8433 40.0128 8.63508 36.6964 6.77985C34.2091 5.37868 31.5958 4.15453 28.9165 3.13541C30.2697 2.95239 31.6398 2.85938 33.001 2.85938C36.2064 2.85938 39.3618 3.35944 42.3811 4.34756C46.3066 5.63171 49.875 7.68096 52.9854 10.4373C53.6705 11.0464 54.3306 11.6884 54.9517 12.3475C53.9995 14.5118 52.8164 16.581 51.4312 18.5053H51.4302Z" fill="white"/>
<path d="M43.7673 26.2832C43.1562 25.5971 42.5221 24.925 41.8791 24.283C40.8789 23.2828 39.8388 22.3297 38.7897 21.4496C35.9353 19.0423 32.792 16.9701 29.4485 15.2909C26.0371 13.5787 22.4037 12.2795 18.6482 11.4294C16.814 11.0153 14.9308 10.7063 13.0446 10.5093C15.9979 7.89897 19.3693 5.92372 23.0728 4.63257C23.6088 4.78159 24.1679 4.94861 24.778 5.14163C28.3744 6.27177 31.8628 7.78295 35.1492 9.63317C38.2856 11.3874 41.277 13.4766 44.0413 15.8429C45.1565 16.791 46.2536 17.8052 47.3057 18.8563C48.0368 19.5874 48.7539 20.3455 49.439 21.1126C47.7448 23.0508 45.8385 24.789 43.7673 26.2822V26.2832Z" fill="#FFB400"/>
<path d="M33.55 31.1918C30.8687 28.6395 27.8453 26.5143 24.5619 24.8751C21.1575 23.1779 17.5291 22.0197 13.7786 21.4327C11.8764 21.1326 9.93215 20.9796 8.00092 20.9796C7.10881 20.9796 6.2047 21.0126 5.30859 21.0776C6.50974 18.2833 8.13294 15.688 10.1362 13.3567C12.7695 13.4787 15.3988 13.8327 17.9541 14.4098C21.4596 15.2039 24.851 16.4161 28.0323 18.0133C31.1547 19.5814 34.0911 21.5167 36.7594 23.7669C37.7395 24.588 38.7106 25.4792 39.6478 26.4153C40.1368 26.9043 40.6219 27.4124 41.0899 27.9285C38.7296 29.3136 36.1953 30.4108 33.551 31.1908L33.55 31.1918Z" fill="#6CB3DF"/>
<path d="M32.9999 63.1407C31.2027 63.1407 29.3925 62.9797 27.6193 62.6616C26.4061 60.3184 25.398 57.8641 24.6239 55.3658C23.5538 51.9434 22.9067 48.4009 22.6977 44.8365C22.4917 41.3491 22.6977 37.8346 23.3118 34.3922C23.5388 33.1101 23.8258 31.8219 24.1629 30.5658C24.3419 29.8937 24.5359 29.2336 24.7519 28.5565C27.1272 29.9077 29.3425 31.5539 31.3427 33.4531C30.4726 37.0486 30.1446 40.73 30.3666 44.3964C30.6006 48.1939 31.4127 51.9164 32.7799 55.4588C33.792 58.0821 35.1012 60.5894 36.6744 62.9187C35.4602 63.0657 34.2261 63.1407 32.9999 63.1407Z" fill="#6CB3DF"/>
<path d="M23.6279 61.6535C19.9174 60.4404 16.526 58.5462 13.5406 56.0209C13.3906 55.4438 13.2426 54.8297 13.0896 54.1436C12.2735 50.4722 11.8344 46.6937 11.7874 42.9143C11.7424 39.2948 12.0575 35.6544 12.7215 32.0939C12.9916 30.6328 13.3206 29.1766 13.6997 27.7644C13.9697 26.7573 14.2687 25.7552 14.5888 24.7841C17.1011 25.2781 19.5594 26.0602 21.8997 27.1103C21.6036 28.0064 21.3446 28.8716 21.1106 29.7497C20.7505 31.0928 20.4445 32.469 20.2014 33.8392C19.5444 37.5266 19.3233 41.2891 19.5434 45.0225C19.7664 48.844 20.4615 52.6394 21.6076 56.3049C22.1677 58.1121 22.8468 59.9083 23.6279 61.6535Z" fill="#FFB400"/>
<path d="M9.40905 51.7543C6.47669 48.0718 4.43444 43.7263 3.48533 39.1338C3.07028 37.1345 2.85925 35.0703 2.85925 32.999C2.85925 30.9278 3.07028 28.8685 3.48533 26.8703C3.65835 26.0232 3.87037 25.1801 4.1144 24.362C5.40256 24.2129 6.70872 24.1379 7.99988 24.1379C9.13502 24.1379 10.2852 24.1959 11.4213 24.311C11.1443 25.1811 10.8852 26.0652 10.6492 26.9433C10.2482 28.4365 9.90011 29.9746 9.61607 31.5158C8.91399 35.2793 8.58195 39.1278 8.62795 42.9522C8.66496 45.8956 8.92799 48.8519 9.40905 51.7533V51.7543Z" fill="white"/>
</svg>
